<?xml version="1.0" standalone="no"?>
<!DOCTYPE svg PUBLIC "-//W3C//DTD SVG 20010904//EN"
 "http://www.w3.org/TR/2001/REC-SVG-20010904/DTD/svg10.dtd">
<svg version="1.0" xmlns="http://www.w3.org/2000/svg"
 width="672.000000pt" height="672.000000pt" viewBox="0 0 672.000000 672.000000"
 preserveAspectRatio="xMidYMid meet">
<metadata>
Created by potrace 1.14, written by Peter Selinger 2001-2017
</metadata>
<g transform="translate(0.000000,672.000000) scale(0.100000,-0.100000)"
fill="#000000" stroke="none">
<path d="M3188 6156 c-1 -2 -39 -6 -83 -10 -44 -4 -89 -9 -100 -11 -11 -3 -36
-7 -55 -10 -203 -27 -471 -111 -681 -214 -175 -86 -275 -147 -414 -252 -131
-98 -156 -120 -280 -244 -171 -171 -283 -316 -399 -519 -128 -221 -246 -528
-282 -733 -2 -13 -6 -35 -9 -50 -48 -251 -54 -620 -15 -853 5 -30 12 -71 15
-90 45 -277 200 -659 368 -910 165 -247 375 -469 598 -636 l67 -50 -256 -410
c-239 -381 -256 -412 -257 -456 0 -54 23 -92 75 -122 32 -19 74 -20 1885 -19
1806 0 1852 0 1884 19 37 21 71 79 71 120 0 38 -27 90 -58 111 -26 17 -107 18
-1744 21 -945 1 -1718 5 -1718 8 0 13 353 574 361 574 5 0 40 -15 78 -34 269
-136 565 -221 881 -254 88 -9 409 -9 495 1 100 10 148 17 165 22 8 3 33 7 55
11 368 56 837 280 1158 552 69 58 284 280 327 337 25 33 50 66 57 73 6 7 46
63 87 126 192 287 332 646 382 976 3 19 7 46 10 60 19 106 26 469 11 610 -8
70 -10 86 -21 150 -2 14 -7 43 -11 65 -3 22 -18 85 -32 140 -142 569 -472
1059 -953 1417 -326 243 -780 425 -1155 464 -33 4 -64 9 -69 12 -9 5 -432 13
-438 8z m422 -289 c8 -3 38 -8 65 -11 269 -31 605 -154 867 -317 498 -311 857
-808 994 -1376 48 -197 59 -297 59 -518 0 -141 -11 -320 -20 -335 -1 -3 -6
-27 -9 -54 -17 -122 -80 -341 -141 -486 -38 -92 -88 -190 -95 -190 -7 0 -215
96 -278 128 l-32 17 5 75 c3 41 8 83 11 92 3 9 6 25 8 35 12 61 66 141 160
239 55 58 106 119 113 135 8 19 12 67 10 128 -3 155 33 142 -411 139 l-371 -3
-135 -54 c-215 -85 -208 -77 -165 -170 l26 -54 -37 -56 c-37 -56 -139 -163
-203 -213 -55 -44 -191 -107 -275 -127 -66 -17 -118 -20 -320 -21 -253 -1
-282 -3 -359 -25 l-48 -14 19 32 c11 18 65 107 121 198 l101 165 59 -4 c266
-19 488 223 444 484 -30 173 -167 313 -338 345 -140 26 -272 -18 -375 -122
-128 -132 -153 -322 -66 -493 l35 -68 -27 -42 c-16 -22 -47 -72 -71 -111 -23
-38 -47 -79 -54 -90 -7 -11 -28 -44 -47 -75 -19 -30 -41 -68 -49 -83 -8 -15
-18 -27 -23 -27 -4 0 -8 -6 -9 -12 0 -7 -25 -51 -54 -98 -30 -47 -81 -130
-115 -185 -34 -55 -86 -138 -115 -185 -30 -47 -62 -99 -71 -117 -9 -18 -22
-37 -30 -44 -8 -6 -14 -15 -14 -19 0 -9 -266 -439 -280 -454 -27 -28 -370 294
-501 469 -245 329 -400 726 -436 1115 -16 169 -7 468 17 589 5 25 11 60 14 76
2 17 12 59 21 95 9 36 18 70 20 75 32 137 141 386 240 550 117 193 330 441
480 560 28 22 52 42 55 46 33 36 313 212 410 256 148 69 337 137 436 158 11 2
51 10 89 18 97 21 128 26 220 33 44 4 82 8 84 10 6 6 374 -3 391 -9z m-172
-2114 c34 -25 62 -79 62 -119 0 -70 -81 -139 -153 -130 -132 16 -169 178 -59
253 41 27 110 26 150 -4z m1792 -1341 c0 -11 -152 -210 -209 -272 l-51 -55 0
141 0 141 43 8 c23 4 47 9 52 11 6 1 26 5 45 9 19 3 51 10 70 14 47 12 50 12
50 3z m-2553 -219 c3 -21 23 -76 44 -122 53 -114 159 -220 271 -270 l75 -34
-55 -161 c-30 -88 -57 -163 -59 -165 -6 -8 -170 31 -287 70 -119 39 -356 145
-356 160 0 4 27 49 59 100 33 52 112 179 176 282 65 103 120 186 122 183 3 -3
7 -22 10 -43z m2159 -77 c49 -109 49 -112 32 -130 -53 -51 -170 -141 -267
-205 -221 -146 -435 -241 -687 -305 -75 -19 -81 -19 -81 -3 0 12 -4 38 -23
177 -5 36 -12 83 -15 105 -3 22 -8 55 -11 73 -3 17 -2 32 1 32 4 0 80 16 170
35 281 61 555 162 734 271 47 29 90 52 95 50 5 -1 28 -46 52 -100z m-1388
-553 c54 -32 113 -66 132 -77 43 -23 106 -66 100 -67 -146 -19 -605 -17 -625
3 -4 4 283 198 291 198 3 0 49 -26 102 -57z"/>
<path d="M2383 5359 c-29 -11 -71 -58 -78 -88 -3 -15 -3 -42 0 -59 4 -25 126
-372 152 -432 3 -8 7 -19 9 -25 1 -5 16 -46 32 -90 17 -44 58 -156 92 -250 69
-187 87 -229 121 -264 63 -67 183 -69 252 -3 27 26 77 119 91 172 4 14 11 34
16 45 5 11 76 198 156 415 159 429 172 479 135 526 -45 57 -95 74 -156 54 -50
-16 -69 -49 -121 -211 -25 -79 -74 -232 -109 -339 -35 -107 -78 -240 -96 -295
l-32 -100 -59 180 c-246 753 -243 745 -301 764 -34 12 -73 11 -104 0z"/>
<path d="M3895 5349 c-172 -47 -296 -148 -367 -299 -52 -110 -68 -198 -63
-345 4 -106 7 -131 21 -178 62 -210 188 -348 364 -402 76 -23 277 -29 350 -9
129 34 225 101 295 207 59 88 78 177 51 240 -24 58 -79 81 -154 63 -28 -7 -37
-18 -74 -94 -74 -152 -142 -203 -273 -204 -110 -1 -193 43 -246 129 -18 29
-29 57 -46 118 -3 11 -7 67 -9 125 -7 217 52 354 181 415 49 23 133 33 185 23
74 -16 145 -77 198 -171 41 -73 73 -97 128 -97 36 0 51 6 81 33 33 31 36 38
36 90 0 152 -166 314 -374 363 -64 15 -216 11 -284 -7z"/>
<path d="M2595 3450 c-34 -22 -47 -43 -51 -83 -12 -100 153 -180 225 -108 11
11 21 23 21 26 0 3 0 10 0 16 0 5 3 8 8 5 4 -2 7 13 7 34 0 21 -3 36 -7 33 -5
-2 -8 1 -8 6 0 6 -7 11 -15 11 -11 0 -14 -7 -9 -24 3 -14 1 -41 -6 -60 -9 -29
-18 -37 -45 -42 -18 -3 -42 -1 -54 5 -20 11 -20 13 -6 42 9 16 19 27 24 25 4
-3 7 5 7 17 -1 13 4 21 12 20 6 -2 11 0 10 5 -5 17 14 52 25 46 7 -3 3 1 -8
10 -11 8 -24 19 -30 23 -19 15 -72 11 -100 -7z m88 -27 c4 -3 -2 -17 -13 -33
-11 -15 -20 -32 -20 -37 -1 -4 -10 -19 -21 -33 l-21 -24 -19 24 c-22 29 -24
58 -5 82 23 31 64 39 99 21z"/>
<path d="M2890 3335 c-17 -21 -49 -76 -56 -97 -4 -10 -10 -18 -15 -18 -5 0 -9
-5 -9 -10 0 -6 -26 -52 -58 -103 -32 -51 -80 -130 -107 -177 -27 -47 -52 -87
-55 -90 -3 -3 -12 -18 -20 -35 -8 -16 -23 -39 -32 -49 -10 -11 -18 -23 -18
-27 0 -3 -43 -78 -96 -165 -53 -88 -105 -172 -114 -189 -9 -16 -60 -101 -114
-189 -53 -87 -93 -162 -90 -167 3 -5 11 -3 18 4 8 6 12 15 10 18 -2 4 5 14 15
23 11 10 22 29 26 43 3 15 11 23 19 20 10 -4 12 0 9 14 -3 11 0 19 8 19 7 0
10 3 6 6 -3 4 6 22 21 42 15 19 25 36 22 36 -2 1 2 11 11 23 9 13 19 20 24 15
5 -4 5 -1 1 5 -8 15 17 56 28 45 4 -4 7 -2 6 3 -1 6 -1 13 0 18 1 4 3 10 4 15
3 18 34 51 41 44 5 -4 5 -1 0 6 -4 8 0 25 12 40 11 15 22 35 26 45 3 9 11 17
17 17 6 0 8 5 5 10 -3 6 -1 10 5 10 6 0 9 4 6 9 -4 5 -1 11 4 13 6 2 12 10 14
18 5 29 48 90 59 83 6 -3 7 -1 3 5 -6 10 9 49 25 62 3 3 14 21 25 40 10 19 21
37 24 40 3 3 11 17 19 32 8 15 18 25 22 22 5 -3 6 2 3 10 -3 9 -1 16 6 16 6 0
8 5 5 10 -3 6 -1 10 4 10 6 0 11 7 11 15 0 8 4 15 9 15 5 0 11 10 13 23 2 12
9 21 15 20 8 -2 10 4 6 14 -5 12 -3 14 8 8 8 -4 11 -5 7 0 -8 9 22 65 35 65 4
0 6 4 3 8 -3 5 3 18 14 29 10 12 16 24 13 27 -4 3 -1 6 6 6 7 0 9 5 6 10 -3 6
-2 10 2 10 5 0 22 25 37 55 16 30 33 52 38 49 5 -3 8 -2 7 3 -4 21 2 34 13 27
7 -4 8 -3 4 5 -4 6 -3 18 4 26 6 8 7 16 2 19 -6 3 -15 -1 -22 -9z"/>
<path d="M2443 3216 c-22 -19 -28 -32 -28 -65 0 -26 -4 -40 -11 -37 -11 4 -42
-10 -34 -17 3 -2 39 -23 80 -47 41 -25 77 -47 80 -50 3 -3 17 -11 32 -17 20
-9 29 -9 34 -1 8 12 -9 26 -76 66 -62 36 -78 53 -84 86 -4 21 1 33 20 51 21
20 30 22 57 14 18 -5 44 -18 59 -29 15 -11 31 -20 35 -20 4 0 19 -9 33 -20 18
-13 28 -16 37 -8 17 14 17 28 0 28 -7 0 -22 8 -33 18 -11 9 -26 18 -33 20 -7
1 -20 9 -27 17 -14 14 -75 35 -101 35 -7 0 -24 -11 -40 -24z"/>
<path d="M2324 2991 c-100 -61 -91 -170 19 -227 25 -13 126 -16 125 -4 -2 14
15 39 23 34 5 -3 9 4 9 15 0 11 5 23 10 26 6 4 8 11 5 16 -4 5 0 9 7 9 10 0
10 2 0 9 -8 4 -13 11 -13 15 4 29 -2 49 -20 64 -12 9 -26 22 -33 28 -10 10
-46 22 -86 30 -9 2 -29 -5 -46 -15z m114 -51 c23 -16 44 -41 48 -54 7 -31 -20
-84 -49 -95 -27 -10 -80 -3 -89 12 -4 7 -8 8 -8 4 0 -4 -11 3 -24 15 -13 13
-22 26 -20 30 3 4 0 9 -6 13 -5 3 -10 11 -10 16 0 6 4 8 9 5 5 -4 7 3 4 14 -6
22 14 53 28 44 5 -3 9 -2 8 3 -3 19 3 23 34 23 22 0 49 -11 75 -30z"/>
<path d="M2173 2750 c-29 -12 -56 -66 -49 -96 5 -19 2 -24 -13 -24 -42 0 -25
-18 76 -79 79 -48 108 -60 116 -51 9 8 6 16 -13 30 -14 11 -31 20 -37 20 -7 0
-13 5 -13 10 0 6 -7 10 -15 10 -8 0 -15 5 -15 12 0 6 -3 9 -6 5 -8 -8 -52 36
-54 54 -4 29 1 46 20 67 19 20 22 20 57 6 21 -9 64 -32 97 -51 43 -27 60 -33
66 -23 8 13 -18 48 -35 46 -5 -1 -9 5 -7 12 1 8 -2 11 -7 8 -5 -3 -35 8 -66
24 -61 32 -68 34 -102 20z"/>
<path d="M2024 2519 c-38 -39 -41 -105 -6 -141 78 -84 182 -83 219 3 13 31 12
45 -6 78 -12 21 -15 22 -23 8 -5 -11 -5 -23 1 -34 18 -33 -23 -95 -58 -88 -9
2 -22 4 -29 4 -7 1 -10 5 -7 11 3 5 0 7 -8 4 -8 -3 -21 2 -30 10 -9 9 -21 16
-27 16 -6 0 -8 5 -5 10 3 6 2 10 -3 10 -5 0 -14 11 -20 24 -9 19 -8 27 4 36 8
7 14 19 14 26 0 9 11 14 29 14 34 0 51 18 30 31 -25 15 -45 10 -75 -22z"/>
<path d="M1936 2374 c-7 -19 -6 -21 66 -112 55 -69 73 -102 46 -86 -18 11
-142 36 -192 38 -10 1 -21 -4 -23 -10 -4 -12 25 -22 82 -30 17 -3 41 -7 55
-10 14 -3 36 -8 50 -10 14 -2 35 -6 48 -9 12 -3 22 -1 22 5 0 6 5 8 10 5 18
-11 11 21 -10 43 -23 24 -26 37 -7 26 8 -5 8 -2 -2 9 -15 18 -26 23 -16 7 3
-5 5 -10 3 -10 -2 0 -26 30 -53 68 -67 90 -72 95 -79 76z"/>
</g>
</svg>
