<svg width="379" height="382" xmlns="http://www.w3.org/2000/svg" xmlns:xlink="http://www.w3.org/1999/xlink" overflow="hidden"><defs><clipPath id="clip0"><rect x="39" y="258" width="379" height="382"/></clipPath><clipPath id="clip1"><rect x="39" y="261" width="378" height="378"/></clipPath><clipPath id="clip2"><rect x="39" y="261" width="379" height="378"/></clipPath></defs><g clip-path="url(#clip0)" transform="translate(-39 -258)"><text fill="#FFFFFF" font-family="Arial Rounded MT,Arial Rounded MT_MSFontService,sans-serif" font-weight="700" font-size="107" transform="translate(153.863 396)">VC</text><g clip-path="url(#clip1)"><g clip-path="url(#clip2)"><path d="M212.725 203.476C212.725 198.39 216.887 194.227 221.974 194.227 227.061 194.227 231.223 198.39 231.223 203.476 231.223 208.563 227.061 212.725 221.974 212.725 216.887 212.725 212.725 208.563 212.725 203.476ZM73.9914 203.476C73.9914 122.086 140.584 55.4936 221.974 55.4936 303.365 55.4936 369.957 122.086 369.957 203.476 369.957 228.911 363.483 252.958 352.384 273.768L331.574 264.057C332.037 258.508 332.037 253.421 333.424 249.721 334.811 245.097 337.586 240.935 340.823 237.697L349.147 229.373C350.997 227.524 351.922 225.211 351.922 222.899L351.922 212.725C351.922 209.951 350.072 208.101 347.297 208.101L304.752 208.101C302.44 208.101 300.128 208.563 297.815 209.488L280.243 216.425C278.855 216.887 278.393 218.275 278.855 219.662L282.092 226.599C282.092 226.599 269.144 252.033 240.472 254.346L214.113 254.346C209.026 254.346 204.401 255.27 199.777 257.12L215.962 230.761C217.812 231.223 219.662 231.223 221.974 231.223 237.235 231.223 249.721 218.737 249.721 203.476 249.721 188.216 237.235 175.73 221.974 175.73 206.714 175.73 194.227 188.216 194.227 203.476 194.227 209.951 196.54 215.962 200.239 221.049L136.422 324.175C98.5011 297.353 73.9914 253.421 73.9914 203.476ZM328.337 306.139 328.337 287.642 345.91 283.942C340.823 292.266 334.811 299.203 328.337 306.139ZM201.164 350.072 221.049 336.661 243.709 350.072C236.773 350.997 229.373 351.459 221.974 351.459 215.038 351.459 208.101 350.997 201.164 350.072ZM176.192 295.503C178.042 310.764 188.678 322.788 202.552 326.95L195.152 349.147C179.892 346.372 165.556 341.285 152.145 333.886L176.192 295.503ZM316.313 296.891 322.788 311.689C303.827 329.262 279.78 342.21 253.421 347.76L249.721 320.938C270.069 317.701 295.966 310.764 316.313 296.891ZM342.21 388.455 118.386 388.455 142.433 349.609C166.018 362.558 193.303 369.957 221.974 369.957 314.001 369.957 388.455 295.503 388.455 203.476 388.455 111.45 314.001 36.9957 221.974 36.9957 129.947 36.9957 55.4936 111.45 55.4936 203.476 55.4936 259.895 83.7028 309.839 126.71 339.898L93.8766 392.617C92.0268 395.392 92.0268 399.091 93.8766 401.866 95.7264 404.641 98.5011 406.49 101.738 406.49L342.21 406.49C347.297 406.49 351.459 402.328 351.459 397.241 351.459 392.155 347.297 388.455 342.21 388.455Z" fill="#FFFFFF" transform="matrix(1 0 0 1.00043 5.71274 227.871)"/></g></g><text fill="#FFFFFF" font-family="Arial Rounded MT,Arial Rounded MT_MSFontService,sans-serif" font-weight="700" font-size="32" transform="matrix(0.52593 -0.850528 0.850528 0.52593 134.439 539)">vcnone</text><path d="M138.919 541.395 153.645 517.58 168.371 493.766 183.097 469.951 197.823 446.136 199.524 447.188 184.798 471.003 170.072 494.818 155.346 518.632 140.62 542.447Z" fill="#FFFFFF" fill-rule="evenodd"/></g></svg>